<svg width="3950" height="2350" viewBox="0 0 3950 2350" fill="none" xmlns="http://www.w3.org/2000/svg">
<path d="M0 0H3950V2350H0V0Z" fill="#212529"/>
<path d="M1760.56 989.796C1761.15 987.197 1764.85 987.197 1765.44 989.796L1770.99 1014.37C1771.37 1016.06 1773.3 1016.86 1774.76 1015.94L1796.07 1002.48C1798.32 1001.06 1800.94 1003.68 1799.52 1005.93L1786.06 1027.24C1785.14 1028.7 1785.94 1030.63 1787.63 1031.01L1812.2 1036.56C1814.8 1037.15 1814.8 1040.85 1812.2 1041.44L1787.63 1046.99C1785.94 1047.37 1785.14 1049.3 1786.06 1050.76L1799.52 1072.07C1800.94 1074.32 1798.32 1076.94 1796.07 1075.52L1774.76 1062.06C1773.3 1061.14 1771.37 1061.94 1770.99 1063.63L1765.44 1088.2C1764.85 1090.8 1761.15 1090.8 1760.56 1088.2L1755.01 1063.63C1754.63 1061.94 1752.7 1061.14 1751.24 1062.06L1729.93 1075.52C1727.68 1076.94 1725.06 1074.32 1726.48 1072.07L1739.94 1050.76C1740.86 1049.3 1740.06 1047.37 1738.37 1046.99L1713.8 1041.44C1711.2 1040.85 1711.2 1037.15 1713.8 1036.56L1738.37 1031.01C1740.06 1030.63 1740.86 1028.7 1739.94 1027.24L1726.48 1005.93C1725.06 1003.68 1727.68 1001.06 1729.93 1002.48L1751.24 1015.94C1752.7 1016.86 1754.63 1016.06 1755.01 1014.37L1760.56 989.796Z" fill="#D9D9D9"/>
<path d="M1387.66 805.336C1388.46 803.16 1391.54 803.16 1392.34 805.336L1400.4 827.118C1400.66 827.803 1401.2 828.342 1401.88 828.595L1423.66 836.655C1425.84 837.461 1425.84 840.539 1423.66 841.345L1401.88 849.405C1401.2 849.658 1400.66 850.197 1400.4 850.882L1392.34 872.664C1391.54 874.84 1388.46 874.84 1387.66 872.664L1379.6 850.882C1379.34 850.197 1378.8 849.658 1378.12 849.405L1356.34 841.345C1354.16 840.539 1354.16 837.461 1356.34 836.655L1378.12 828.595C1378.8 828.342 1379.34 827.803 1379.6 827.118L1387.66 805.336Z" fill="#D9D9D9"/>
<path d="M1972.66 548.336C1973.46 546.16 1976.54 546.16 1977.34 548.336L1985.4 570.118C1985.66 570.803 1986.2 571.342 1986.88 571.595L2008.66 579.655C2010.84 580.461 2010.84 583.539 2008.66 584.345L1986.88 592.405C1986.2 592.658 1985.66 593.197 1985.4 593.882L1977.34 615.664C1976.54 617.84 1973.46 617.84 1972.66 615.664L1964.6 593.882C1964.34 593.197 1963.8 592.658 1963.12 592.405L1941.34 584.345C1939.16 583.539 1939.16 580.461 1941.34 579.655L1963.12 571.595C1963.8 571.342 1964.34 570.803 1964.6 570.118L1972.66 548.336Z" fill="#D9D9D9"/>
<path d="M2217.66 1181.34C2218.46 1179.16 2221.54 1179.16 2222.34 1181.34L2230.4 1203.12C2230.66 1203.8 2231.2 1204.34 2231.88 1204.6L2253.66 1212.66C2255.84 1213.46 2255.84 1216.54 2253.66 1217.34L2231.88 1225.4C2231.2 1225.66 2230.66 1226.2 2230.4 1226.88L2222.34 1248.66C2221.54 1250.84 2218.46 1250.84 2217.66 1248.66L2209.6 1226.88C2209.34 1226.2 2208.8 1225.66 2208.12 1225.4L2186.34 1217.34C2184.16 1216.54 2184.16 1213.46 2186.34 1212.66L2208.12 1204.6C2208.8 1204.34 2209.34 1203.8 2209.6 1203.12L2217.66 1181.34Z" fill="#D9D9D9"/>
<path d="M964.655 508.336C965.461 506.16 968.539 506.16 969.345 508.336L977.405 530.118C977.658 530.803 978.197 531.342 978.882 531.595L1000.66 539.655C1002.84 540.461 1002.84 543.539 1000.66 544.345L978.882 552.405C978.197 552.658 977.658 553.197 977.405 553.882L969.345 575.664C968.539 577.84 965.461 577.84 964.655 575.664L956.595 553.882C956.342 553.197 955.803 552.658 955.118 552.405L933.336 544.345C931.16 543.539 931.16 540.461 933.336 539.655L955.118 531.595C955.803 531.342 956.342 530.803 956.595 530.118L964.655 508.336Z" fill="#D9D9D9"/>
<path d="M3185.66 446.336C3186.46 444.16 3189.54 444.16 3190.34 446.336L3198.4 468.118C3198.66 468.803 3199.2 469.342 3199.88 469.595L3221.66 477.655C3223.84 478.461 3223.84 481.539 3221.66 482.345L3199.88 490.405C3199.2 490.658 3198.66 491.197 3198.4 491.882L3190.34 513.664C3189.54 515.84 3186.46 515.84 3185.66 513.664L3177.6 491.882C3177.34 491.197 3176.8 490.658 3176.12 490.405L3154.34 482.345C3152.16 481.539 3152.16 478.461 3154.34 477.655L3176.12 469.595C3176.8 469.342 3177.34 468.803 3177.6 468.118L3185.66 446.336Z" fill="#D9D9D9"/>
<path d="M2337.66 366.336C2338.46 364.16 2341.54 364.16 2342.34 366.336L2350.4 388.118C2350.66 388.803 2351.2 389.342 2351.88 389.595L2373.66 397.655C2375.84 398.461 2375.84 401.539 2373.66 402.345L2351.88 410.405C2351.2 410.658 2350.66 411.197 2350.4 411.882L2342.34 433.664C2341.54 435.84 2338.46 435.84 2337.66 433.664L2329.6 411.882C2329.34 411.197 2328.8 410.658 2328.12 410.405L2306.34 402.345C2304.16 401.539 2304.16 398.461 2306.34 397.655L2328.12 389.595C2328.8 389.342 2329.34 388.803 2329.6 388.118L2337.66 366.336Z" fill="#D9D9D9"/>
<path d="M1267.66 1321.34C1268.46 1319.16 1271.54 1319.16 1272.34 1321.34L1280.4 1343.12C1280.66 1343.8 1281.2 1344.34 1281.88 1344.6L1303.66 1352.66C1305.84 1353.46 1305.84 1356.54 1303.66 1357.34L1281.88 1365.4C1281.2 1365.66 1280.66 1366.2 1280.4 1366.88L1272.34 1388.66C1271.54 1390.84 1268.46 1390.84 1267.66 1388.66L1259.6 1366.88C1259.34 1366.2 1258.8 1365.66 1258.12 1365.4L1236.34 1357.34C1234.16 1356.54 1234.16 1353.46 1236.34 1352.66L1258.12 1344.6C1258.8 1344.34 1259.34 1343.8 1259.6 1343.12L1267.66 1321.34Z" fill="#D9D9D9"/>
<path d="M678.655 1927.34C679.461 1925.16 682.539 1925.16 683.345 1927.34L691.405 1949.12C691.658 1949.8 692.197 1950.34 692.882 1950.6L714.664 1958.66C716.84 1959.46 716.84 1962.54 714.664 1963.34L692.882 1971.4C692.197 1971.66 691.658 1972.2 691.405 1972.88L683.345 1994.66C682.539 1996.84 679.461 1996.84 678.655 1994.66L670.595 1972.88C670.342 1972.2 669.803 1971.66 669.118 1971.4L647.336 1963.34C645.16 1962.54 645.16 1959.46 647.336 1958.66L669.118 1950.6C669.803 1950.34 670.342 1949.8 670.595 1949.12L678.655 1927.34Z" fill="#D9D9D9"/>
<path d="M435.655 1181.34C436.461 1179.16 439.539 1179.16 440.345 1181.34L448.405 1203.12C448.658 1203.8 449.197 1204.34 449.882 1204.6L471.664 1212.66C473.84 1213.46 473.84 1216.54 471.664 1217.34L449.882 1225.4C449.197 1225.66 448.658 1226.2 448.405 1226.88L440.345 1248.66C439.539 1250.84 436.461 1250.84 435.655 1248.66L427.595 1226.88C427.342 1226.2 426.803 1225.66 426.118 1225.4L404.336 1217.34C402.16 1216.54 402.16 1213.46 404.336 1212.66L426.118 1204.6C426.803 1204.34 427.342 1203.8 427.595 1203.12L435.655 1181.34Z" fill="#D9D9D9"/>
<path d="M3376.66 805.336C3377.46 803.16 3380.54 803.16 3381.34 805.336L3389.4 827.118C3389.66 827.803 3390.2 828.342 3390.88 828.595L3412.66 836.655C3414.84 837.461 3414.84 840.539 3412.66 841.345L3390.88 849.405C3390.2 849.658 3389.66 850.197 3389.4 850.882L3381.34 872.664C3380.54 874.84 3377.46 874.84 3376.66 872.664L3368.6 850.882C3368.34 850.197 3367.8 849.658 3367.12 849.405L3345.34 841.345C3343.16 840.539 3343.16 837.461 3345.34 836.655L3367.12 828.595C3367.8 828.342 3368.34 827.803 3368.6 827.118L3376.66 805.336Z" fill="#D9D9D9"/>
<path d="M3078.66 1623.34C3079.46 1621.16 3082.54 1621.16 3083.34 1623.34L3091.4 1645.12C3091.66 1645.8 3092.2 1646.34 3092.88 1646.6L3114.66 1654.66C3116.84 1655.46 3116.84 1658.54 3114.66 1659.34L3092.88 1667.4C3092.2 1667.66 3091.66 1668.2 3091.4 1668.88L3083.34 1690.66C3082.54 1692.84 3079.46 1692.84 3078.66 1690.66L3070.6 1668.88C3070.34 1668.2 3069.8 1667.66 3069.12 1667.4L3047.34 1659.34C3045.16 1658.54 3045.16 1655.46 3047.34 1654.66L3069.12 1646.6C3069.8 1646.34 3070.34 1645.8 3070.6 1645.12L3078.66 1623.34Z" fill="#D9D9D9"/>
<path d="M2111.66 925.336C2112.46 923.16 2115.54 923.16 2116.34 925.336L2124.4 947.118C2124.66 947.803 2125.2 948.342 2125.88 948.595L2147.66 956.655C2149.84 957.461 2149.84 960.539 2147.66 961.345L2125.88 969.405C2125.2 969.658 2124.66 970.197 2124.4 970.882L2116.34 992.664C2115.54 994.84 2112.46 994.84 2111.66 992.664L2103.6 970.882C2103.34 970.197 2102.8 969.658 2102.12 969.405L2080.34 961.345C2078.16 960.539 2078.16 957.461 2080.34 956.655L2102.12 948.595C2102.8 948.342 2103.34 947.803 2103.6 947.118L2111.66 925.336Z" fill="#D9D9D9"/>
<path d="M2801.66 925.336C2802.46 923.16 2805.54 923.16 2806.34 925.336L2814.4 947.118C2814.66 947.803 2815.2 948.342 2815.88 948.595L2837.66 956.655C2839.84 957.461 2839.84 960.539 2837.66 961.345L2815.88 969.405C2815.2 969.658 2814.66 970.197 2814.4 970.882L2806.34 992.664C2805.54 994.84 2802.46 994.84 2801.66 992.664L2793.6 970.882C2793.34 970.197 2792.8 969.658 2792.12 969.405L2770.34 961.345C2768.16 960.539 2768.16 957.461 2770.34 956.655L2792.12 948.595C2792.8 948.342 2793.34 947.803 2793.6 947.118L2801.66 925.336Z" fill="#D9D9D9"/>
<path d="M2601.66 1141.34C2602.46 1139.16 2605.54 1139.16 2606.34 1141.34L2614.4 1163.12C2614.66 1163.8 2615.2 1164.34 2615.88 1164.6L2637.66 1172.66C2639.84 1173.46 2639.84 1176.54 2637.66 1177.34L2615.88 1185.4C2615.2 1185.66 2614.66 1186.2 2614.4 1186.88L2606.34 1208.66C2605.54 1210.84 2602.46 1210.84 2601.66 1208.66L2593.6 1186.88C2593.34 1186.2 2592.8 1185.66 2592.12 1185.4L2570.34 1177.34C2568.16 1176.54 2568.16 1173.46 2570.34 1172.66L2592.12 1164.6C2592.8 1164.34 2593.34 1163.8 2593.6 1163.12L2601.66 1141.34Z" fill="#D9D9D9"/>
<path d="M1347.66 1847.34C1348.46 1845.16 1351.54 1845.16 1352.34 1847.34L1360.4 1869.12C1360.66 1869.8 1361.2 1870.34 1361.88 1870.6L1383.66 1878.66C1385.84 1879.46 1385.84 1882.54 1383.66 1883.34L1361.88 1891.4C1361.2 1891.66 1360.66 1892.2 1360.4 1892.88L1352.34 1914.66C1351.54 1916.84 1348.46 1916.84 1347.66 1914.66L1339.6 1892.88C1339.34 1892.2 1338.8 1891.66 1338.12 1891.4L1316.34 1883.34C1314.16 1882.54 1314.16 1879.46 1316.34 1878.66L1338.12 1870.6C1338.8 1870.34 1339.34 1869.8 1339.6 1869.12L1347.66 1847.34Z" fill="#D9D9D9"/>
<path d="M1467.66 246.336C1468.46 244.16 1471.54 244.16 1472.34 246.336L1480.4 268.118C1480.66 268.803 1481.2 269.342 1481.88 269.595L1503.66 277.655C1505.84 278.461 1505.84 281.539 1503.66 282.345L1481.88 290.405C1481.2 290.658 1480.66 291.197 1480.4 291.882L1472.34 313.664C1471.54 315.84 1468.46 315.84 1467.66 313.664L1459.6 291.882C1459.34 291.197 1458.8 290.658 1458.12 290.405L1436.34 282.345C1434.16 281.539 1434.16 278.461 1436.34 277.655L1458.12 269.595C1458.8 269.342 1459.34 268.803 1459.6 268.118L1467.66 246.336Z" fill="#D9D9D9"/>
<path d="M2257.66 1767.34C2258.46 1765.16 2261.54 1765.16 2262.34 1767.34L2270.4 1789.12C2270.66 1789.8 2271.2 1790.34 2271.88 1790.6L2293.66 1798.66C2295.84 1799.46 2295.84 1802.54 2293.66 1803.34L2271.88 1811.4C2271.2 1811.66 2270.66 1812.2 2270.4 1812.88L2262.34 1834.66C2261.54 1836.84 2258.46 1836.84 2257.66 1834.66L2249.6 1812.88C2249.34 1812.2 2248.8 1811.66 2248.12 1811.4L2226.34 1803.34C2224.16 1802.54 2224.16 1799.46 2226.34 1798.66L2248.12 1790.6C2248.8 1790.34 2249.34 1789.8 2249.6 1789.12L2257.66 1767.34Z" fill="#D9D9D9"/>
<path d="M830.655 965.336C831.461 963.16 834.539 963.16 835.345 965.336L843.405 987.118C843.658 987.803 844.197 988.342 844.882 988.595L866.664 996.655C868.84 997.461 868.84 1000.54 866.664 1001.34L844.882 1009.4C844.197 1009.66 843.658 1010.2 843.405 1010.88L835.345 1032.66C834.539 1034.84 831.461 1034.84 830.655 1032.66L822.595 1010.88C822.342 1010.2 821.803 1009.66 821.118 1009.4L799.336 1001.34C797.16 1000.54 797.16 997.461 799.336 996.655L821.118 988.595C821.803 988.342 822.342 987.803 822.595 987.118L830.655 965.336Z" fill="#D9D9D9"/>
<path d="M1720.66 1321.34C1721.46 1319.16 1724.54 1319.16 1725.34 1321.34L1733.4 1343.12C1733.66 1343.8 1734.2 1344.34 1734.88 1344.6L1756.66 1352.66C1758.84 1353.46 1758.84 1356.54 1756.66 1357.34L1734.88 1365.4C1734.2 1365.66 1733.66 1366.2 1733.4 1366.88L1725.34 1388.66C1724.54 1390.84 1721.46 1390.84 1720.66 1388.66L1712.6 1366.88C1712.34 1366.2 1711.8 1365.66 1711.12 1365.4L1689.34 1357.34C1687.16 1356.54 1687.16 1353.46 1689.34 1352.66L1711.12 1344.6C1711.8 1344.34 1712.34 1343.8 1712.6 1343.12L1720.66 1321.34Z" fill="#D9D9D9"/>
<path d="M790.655 1434.34C791.461 1432.16 794.539 1432.16 795.345 1434.34L803.405 1456.12C803.658 1456.8 804.197 1457.34 804.882 1457.6L826.664 1465.66C828.84 1466.46 828.84 1469.54 826.664 1470.34L804.882 1478.4C804.197 1478.66 803.658 1479.2 803.405 1479.88L795.345 1501.66C794.539 1503.84 791.461 1503.84 790.655 1501.66L782.595 1479.88C782.342 1479.2 781.803 1478.66 781.118 1478.4L759.336 1470.34C757.16 1469.54 757.16 1466.46 759.336 1465.66L781.118 1457.6C781.803 1457.34 782.342 1456.8 782.595 1456.12L790.655 1434.34Z" fill="#D9D9D9"/>
<path d="M475.655 286.336C476.461 284.16 479.539 284.16 480.345 286.336L488.405 308.118C488.658 308.803 489.197 309.342 489.882 309.595L511.664 317.655C513.84 318.461 513.84 321.539 511.664 322.345L489.882 330.405C489.197 330.658 488.658 331.197 488.405 331.882L480.345 353.664C479.539 355.84 476.461 355.84 475.655 353.664L467.595 331.882C467.342 331.197 466.803 330.658 466.118 330.405L444.336 322.345C442.16 321.539 442.16 318.461 444.336 317.655L466.118 309.595C466.803 309.342 467.342 308.803 467.595 308.118L475.655 286.336Z" fill="#D9D9D9"/>
<path d="M2801.66 412.336C2802.46 410.16 2805.54 410.16 2806.34 412.336L2814.4 434.118C2814.66 434.803 2815.2 435.342 2815.88 435.595L2837.66 443.655C2839.84 444.461 2839.84 447.539 2837.66 448.345L2815.88 456.405C2815.2 456.658 2814.66 457.197 2814.4 457.882L2806.34 479.664C2805.54 481.84 2802.46 481.84 2801.66 479.664L2793.6 457.882C2793.34 457.197 2792.8 456.658 2792.12 456.405L2770.34 448.345C2768.16 447.539 2768.16 444.461 2770.34 443.655L2792.12 435.595C2792.8 435.342 2793.34 434.803 2793.6 434.118L2801.66 412.336Z" fill="#D9D9D9"/>
<path d="M1640.66 692.336C1641.46 690.16 1644.54 690.16 1645.34 692.336L1653.4 714.118C1653.66 714.803 1654.2 715.342 1654.88 715.595L1676.66 723.655C1678.84 724.461 1678.84 727.539 1676.66 728.345L1654.88 736.405C1654.2 736.658 1653.66 737.197 1653.4 737.882L1645.34 759.664C1644.54 761.84 1641.46 761.84 1640.66 759.664L1632.6 737.882C1632.34 737.197 1631.8 736.658 1631.12 736.405L1609.34 728.345C1607.16 727.539 1607.16 724.461 1609.34 723.655L1631.12 715.595C1631.8 715.342 1632.34 714.803 1632.6 714.118L1640.66 692.336Z" fill="#D9D9D9"/>
</svg>
